<?xml version="1.0" encoding="UTF-8" standalone="no"?>
<!DOCTYPE svg PUBLIC "-//W3C//DTD SVG 1.1//EN" "http://www.w3.org/Graphics/SVG/1.1/DTD/svg11.dtd">
<svg width="100%" height="100%" viewBox="0 0 22 22" version="1.1" xmlns="http://www.w3.org/2000/svg" xmlns:xlink="http://www.w3.org/1999/xlink" xml:space="preserve" xmlns:serif="http://www.serif.com/" style="fill-rule:evenodd;clip-rule:evenodd;stroke-linejoin:round;stroke-miterlimit:2;">
    <path d="M1.375,11C1.375,10.818 1.447,10.643 1.576,10.514C1.705,10.385 1.88,10.312 2.063,10.312L18.278,10.312L13.951,5.987C13.822,5.858 13.749,5.682 13.749,5.5C13.749,5.317 13.822,5.142 13.951,5.013C14.08,4.884 14.255,4.812 14.438,4.812C14.62,4.812 14.795,4.884 14.924,5.013L20.424,10.513C20.488,10.577 20.539,10.653 20.574,10.736C20.608,10.82 20.626,10.91 20.626,11C20.626,11.09 20.608,11.18 20.574,11.263C20.539,11.347 20.488,11.423 20.424,11.487L14.924,16.987C14.795,17.116 14.62,17.188 14.438,17.188C14.255,17.188 14.08,17.116 13.951,16.987C13.822,16.858 13.749,16.683 13.749,16.5C13.749,16.317 13.822,16.142 13.951,16.013L18.278,11.687L2.063,11.687C1.88,11.687 1.705,11.615 1.576,11.486C1.447,11.357 1.375,11.182 1.375,11Z" style="fill:rgb(120,84,247);"/>
</svg>
