<?xml version="1.0" encoding="UTF-8" standalone="no"?>
<!DOCTYPE svg PUBLIC "-//W3C//DTD SVG 1.1//EN" "http://www.w3.org/Graphics/SVG/1.1/DTD/svg11.dtd">
<svg width="100%" height="100%" viewBox="0 0 40 40" version="1.1" xmlns="http://www.w3.org/2000/svg" xmlns:xlink="http://www.w3.org/1999/xlink" xml:space="preserve" xmlns:serif="http://www.serif.com/" style="fill-rule:evenodd;clip-rule:evenodd;stroke-linejoin:round;stroke-miterlimit:2;">
    <path d="M10,0C7.348,0 4.804,1.054 2.929,2.929C1.054,4.804 0,7.348 0,10L0,30C0,32.652 1.054,35.196 2.929,37.071C4.804,38.946 7.348,40 10,40L30,40C32.652,40 35.196,38.946 37.071,37.071C38.946,35.196 40,32.652 40,30L40,10C40,7.348 38.946,4.804 37.071,2.929C35.196,1.054 32.652,0 30,0L10,0ZM27.46,17.368C27.64,17.176 27.78,16.951 27.872,16.705C27.965,16.459 28.008,16.198 28,15.935C27.991,15.672 27.931,15.414 27.823,15.175C27.714,14.935 27.56,14.72 27.368,14.54C27.176,14.36 26.951,14.22 26.705,14.128C26.459,14.035 26.198,13.992 25.935,14C25.672,14.009 25.414,14.069 25.175,14.177C24.935,14.286 24.72,14.44 24.54,14.632L18.374,21.212L15.328,18.506C14.929,18.174 14.416,18.011 13.899,18.05C13.382,18.089 12.899,18.327 12.555,18.715C12.21,19.103 12.029,19.61 12.051,20.128C12.073,20.647 12.296,21.137 12.672,21.494L17.172,25.494C17.561,25.84 18.07,26.02 18.591,25.997C19.111,25.973 19.601,25.748 19.958,25.368L27.458,17.368L27.46,17.368Z" style="fill:rgb(120,84,247);"/>
</svg>
