<?xml version="1.0" encoding="UTF-8" standalone="no"?>
<!DOCTYPE svg PUBLIC "-//W3C//DTD SVG 1.1//EN" "http://www.w3.org/Graphics/SVG/1.1/DTD/svg11.dtd">
<svg width="100%" height="100%" viewBox="0 0 40 40" version="1.1" xmlns="http://www.w3.org/2000/svg" xmlns:xlink="http://www.w3.org/1999/xlink" xml:space="preserve" xmlns:serif="http://www.serif.com/" style="fill-rule:evenodd;clip-rule:evenodd;stroke-linejoin:round;stroke-miterlimit:2;">
    <path d="M20,0C16.044,0 12.178,1.173 8.889,3.371C5.6,5.568 3.036,8.692 1.522,12.346C0.009,16.001 -0.387,20.022 0.384,23.902C1.156,27.781 3.061,31.345 5.858,34.142C8.655,36.939 12.219,38.844 16.098,39.616C19.978,40.387 23.999,39.991 27.654,38.478C31.308,36.964 34.432,34.4 36.629,31.111C38.827,27.822 40,23.956 40,20C40,14.696 37.893,9.609 34.142,5.858C30.391,2.107 25.304,0 20,0ZM20,36.667C16.704,36.667 13.481,35.689 10.741,33.858C8,32.026 5.863,29.424 4.602,26.378C3.341,23.333 3.011,19.982 3.654,16.749C4.297,13.516 5.884,10.546 8.215,8.215C10.546,5.884 13.516,4.297 16.749,3.654C19.982,3.01 23.333,3.341 26.378,4.602C29.424,5.863 32.026,8 33.858,10.741C35.689,13.481 36.667,16.704 36.667,20C36.667,22.189 36.236,24.356 35.398,26.378C34.56,28.4 33.333,30.238 31.785,31.785C30.238,33.333 28.4,34.56 26.378,35.398C24.356,36.236 22.189,36.667 20,36.667Z" style="fill:rgb(120,84,247);fill-rule:nonzero;"/>
    <path d="M17.233,29.567L8.9,21.233C8.627,20.915 8.484,20.504 8.5,20.085C8.517,19.666 8.691,19.268 8.987,18.971C9.284,18.674 9.682,18.5 10.102,18.484C10.521,18.468 10.931,18.61 11.25,18.883L17.233,24.867L28.533,13.567C28.852,13.294 29.262,13.151 29.682,13.167C30.101,13.183 30.499,13.357 30.796,13.654C31.093,13.951 31.267,14.349 31.283,14.768C31.299,15.188 31.156,15.598 30.883,15.917L17.233,29.567Z" style="fill:rgb(120,84,247);fill-rule:nonzero;"/>
</svg>
