<?xml version="1.0" encoding="UTF-8" standalone="no"?>
<!DOCTYPE svg PUBLIC "-//W3C//DTD SVG 1.1//EN" "http://www.w3.org/Graphics/SVG/1.1/DTD/svg11.dtd">
<svg width="100%" height="100%" viewBox="0 0 48 48" version="1.1" xmlns="http://www.w3.org/2000/svg" xmlns:xlink="http://www.w3.org/1999/xlink" xml:space="preserve" xmlns:serif="http://www.serif.com/" style="fill-rule:evenodd;clip-rule:evenodd;stroke-linejoin:round;stroke-miterlimit:2;">
    <g transform="matrix(1,0,0,1,4.00002,3.99998)">
        <path d="M20,13.333L20,3.333L10,3.333C9.116,3.333 8.268,3.685 7.643,4.31C7.018,4.935 6.667,5.783 6.667,6.667L6.667,33.333C6.667,34.217 7.018,35.065 7.643,35.69C8.268,36.316 9.116,36.667 10,36.667L30,36.667C30.884,36.667 31.732,36.316 32.357,35.69C32.982,35.065 33.333,34.217 33.333,33.333L33.333,16.667L23.333,16.667C22.449,16.667 21.601,16.316 20.976,15.69C20.351,15.065 20,14.217 20,13.333ZM11.667,20.417C11.667,20.085 11.798,19.767 12.033,19.533C12.267,19.298 12.585,19.167 12.917,19.167C13.248,19.167 13.566,19.298 13.801,19.533C14.035,19.767 14.167,20.085 14.167,20.417C14.167,20.748 14.035,21.066 13.801,21.301C13.566,21.535 13.248,21.667 12.917,21.667C12.585,21.667 12.267,21.535 12.033,21.301C11.798,21.066 11.667,20.748 11.667,20.417ZM11.667,25.417C11.667,25.085 11.798,24.767 12.033,24.533C12.267,24.298 12.585,24.167 12.917,24.167C13.248,24.167 13.566,24.298 13.801,24.533C14.035,24.767 14.167,25.085 14.167,25.417C14.167,25.748 14.035,26.066 13.801,26.301C13.566,26.535 13.248,26.667 12.917,26.667C12.585,26.667 12.267,26.535 12.033,26.301C11.798,26.066 11.667,25.748 11.667,25.417ZM11.667,30.417C11.667,30.085 11.798,29.767 12.033,29.533C12.267,29.298 12.585,29.167 12.917,29.167C13.248,29.167 13.566,29.298 13.801,29.533C14.035,29.767 14.167,30.085 14.167,30.417C14.167,30.748 14.035,31.066 13.801,31.301C13.566,31.535 13.248,31.667 12.917,31.667C12.585,31.667 12.267,31.535 12.033,31.301C11.798,31.066 11.667,30.748 11.667,30.417ZM16.667,20.417C16.667,20.085 16.798,19.767 17.033,19.533C17.267,19.298 17.585,19.167 17.917,19.167L27.083,19.167C27.415,19.167 27.733,19.298 27.967,19.533C28.202,19.767 28.333,20.085 28.333,20.417C28.333,20.748 28.202,21.066 27.967,21.301C27.733,21.535 27.415,21.667 27.083,21.667L17.917,21.667C17.585,21.667 17.267,21.535 17.033,21.301C16.798,21.066 16.667,20.748 16.667,20.417ZM16.667,25.417C16.667,25.085 16.798,24.767 17.033,24.533C17.267,24.298 17.585,24.167 17.917,24.167L27.083,24.167C27.415,24.167 27.733,24.298 27.967,24.533C28.202,24.767 28.333,25.085 28.333,25.417C28.333,25.748 28.202,26.066 27.967,26.301C27.733,26.535 27.415,26.667 27.083,26.667L17.917,26.667C17.585,26.667 17.267,26.535 17.033,26.301C16.798,26.066 16.667,25.748 16.667,25.417ZM16.667,30.417C16.667,30.085 16.798,29.767 17.033,29.533C17.267,29.298 17.585,29.167 17.917,29.167L27.083,29.167C27.415,29.167 27.733,29.298 27.967,29.533C28.202,29.767 28.333,30.085 28.333,30.417C28.333,30.748 28.202,31.066 27.967,31.301C27.733,31.535 27.415,31.667 27.083,31.667L17.917,31.667C17.585,31.667 17.267,31.535 17.033,31.301C16.798,31.066 16.667,30.748 16.667,30.417ZM22.5,13.333L22.5,4.167L32.5,14.167L23.333,14.167C23.112,14.167 22.9,14.079 22.744,13.923C22.588,13.766 22.5,13.554 22.5,13.333Z" style="fill:rgb(39,45,78);fill-rule:nonzero;"/>
    </g>
</svg>
