<?xml version="1.0" encoding="UTF-8" standalone="no"?>
<!DOCTYPE svg PUBLIC "-//W3C//DTD SVG 1.1//EN" "http://www.w3.org/Graphics/SVG/1.1/DTD/svg11.dtd">
<svg width="100%" height="100%" viewBox="0 0 26 26" version="1.1" xmlns="http://www.w3.org/2000/svg" xmlns:xlink="http://www.w3.org/1999/xlink" xml:space="preserve" xmlns:serif="http://www.serif.com/" style="fill-rule:evenodd;clip-rule:evenodd;stroke-linejoin:round;stroke-miterlimit:1.41421;">
    <g transform="matrix(1,0,0,1,0.381818,1.072)">
        <path d="M12.618,0C5.991,0 0.618,5.373 0.618,12C0.618,17.989 5.006,22.952 10.744,23.856L10.744,15.47L7.695,15.47L7.695,12L10.744,12L10.744,9.356C10.744,6.346 12.535,4.686 15.275,4.686C16.588,4.686 17.964,4.92 17.964,4.92L17.964,7.872L16.447,7.872C14.958,7.872 14.493,8.798 14.493,9.747L14.493,11.998L17.818,11.998L17.287,15.467L14.493,15.467L14.493,23.854C20.231,22.955 24.618,17.99 24.618,12C24.618,5.373 19.245,0 12.618,0Z" style="fill:rgb(39,45,78);fill-rule:nonzero;"/>
    </g>
</svg>
