<?xml version="1.0" encoding="UTF-8" standalone="no"?>
<!DOCTYPE svg PUBLIC "-//W3C//DTD SVG 1.1//EN" "http://www.w3.org/Graphics/SVG/1.1/DTD/svg11.dtd">
<svg width="100%" height="100%" viewBox="0 0 234 168" version="1.1" xmlns="http://www.w3.org/2000/svg" xmlns:xlink="http://www.w3.org/1999/xlink" xml:space="preserve" xmlns:serif="http://www.serif.com/" style="fill-rule:evenodd;clip-rule:evenodd;stroke-linejoin:round;stroke-miterlimit:2;">
    <path d="M2.121,157.412C12.018,147.059 19.795,137.412 25.45,128.471C31.106,119.529 33.934,112.235 33.934,106.588C33.934,103.294 32.755,100.235 30.399,97.412C28.514,94.588 25.45,91.529 21.209,88.235C14.61,83.059 9.426,77.647 5.656,72C1.885,66.353 0,58.824 0,49.412C0,34.824 4.477,23.059 13.432,14.118C22.387,4.706 33.698,0 47.366,0C61.976,0 73.758,4.706 82.713,14.118C92.139,23.059 96.852,34.824 96.852,49.412C96.852,67.765 89.076,88 73.523,110.118C58.441,131.765 38.175,151.059 12.725,168L2.121,157.412ZM139.269,157.412C149.166,147.059 156.943,137.412 162.598,128.471C168.254,119.529 171.082,112.235 171.082,106.588C171.082,103.294 169.903,100.235 167.547,97.412C165.662,94.588 162.598,91.529 158.356,88.235C151.758,83.059 146.574,77.647 142.804,72C139.033,66.353 137.148,58.824 137.148,49.412C137.148,34.824 141.625,23.059 150.58,14.118C159.535,4.706 170.846,0 184.514,0C199.124,0 210.906,4.706 219.861,14.118C229.287,23.059 234,34.824 234,49.412C234,67.765 226.224,88 210.671,110.118C195.589,131.765 175.323,151.059 149.873,168L139.269,157.412Z" style="fill:rgb(237,240,253);fill-rule:nonzero;"/>
</svg>
