<?xml version="1.0" encoding="UTF-8" standalone="no"?>
<!DOCTYPE svg PUBLIC "-//W3C//DTD SVG 1.1//EN" "http://www.w3.org/Graphics/SVG/1.1/DTD/svg11.dtd">
<svg width="100%" height="100%" viewBox="0 0 16 16" version="1.1" xmlns="http://www.w3.org/2000/svg" xmlns:xlink="http://www.w3.org/1999/xlink" xml:space="preserve" xmlns:serif="http://www.serif.com/" style="fill-rule:evenodd;clip-rule:evenodd;stroke-linejoin:round;stroke-miterlimit:2;">
    <path d="M15.781,13.834L12.666,10.719C12.525,10.578 12.334,10.5 12.134,10.5L11.625,10.5C12.488,9.397 13,8.009 13,6.5C13,2.909 10.091,0 6.5,0C2.909,0 0,2.909 0,6.5C0,10.091 2.909,13 6.5,13C8.009,13 9.397,12.488 10.5,11.625L10.5,12.134C10.5,12.334 10.578,12.525 10.719,12.666L13.834,15.781C14.128,16.075 14.603,16.075 14.894,15.781L15.778,14.897C16.072,14.603 16.072,14.128 15.781,13.834ZM6.5,10.5C4.291,10.5 2.5,8.713 2.5,6.5C2.5,4.291 4.288,2.5 6.5,2.5C8.709,2.5 10.5,4.288 10.5,6.5C10.5,8.709 8.713,10.5 6.5,10.5Z" style="fill:rgb(39,45,78);fill-rule:nonzero;"/>
</svg>
