<?xml version="1.0" encoding="UTF-8" standalone="no"?>
<!DOCTYPE svg PUBLIC "-//W3C//DTD SVG 1.1//EN" "http://www.w3.org/Graphics/SVG/1.1/DTD/svg11.dtd">
<svg width="100%" height="100%" viewBox="0 0 48 48" version="1.1" xmlns="http://www.w3.org/2000/svg" xmlns:xlink="http://www.w3.org/1999/xlink" xml:space="preserve" xmlns:serif="http://www.serif.com/" style="fill-rule:evenodd;clip-rule:evenodd;stroke-linejoin:round;stroke-miterlimit:2;">
    <g transform="matrix(1,0,0,1,6,6)">
        <path d="M35.644,33.963L33.993,35.649C33.759,35.859 33.478,35.965 33.15,35.965C32.822,35.965 32.541,35.859 32.307,35.649L27.004,30.31C25.599,31.106 24.101,31.504 22.508,31.504C20.026,31.504 17.907,30.626 16.151,28.87C14.395,27.114 13.517,24.995 13.517,22.513C13.517,20.031 14.395,17.912 16.151,16.156C17.907,14.4 20.026,13.522 22.508,13.522C24.99,13.522 27.109,14.4 28.865,16.156C30.621,17.912 31.5,20.031 31.5,22.513C31.5,24.105 31.101,25.592 30.305,26.974L35.644,32.312C35.878,32.546 35.995,32.822 35.995,33.138C35.995,33.454 35.878,33.729 35.644,33.963ZM22.526,15.77C20.664,15.77 19.072,16.425 17.749,17.737C16.426,19.048 15.765,20.634 15.765,22.496C15.765,24.357 16.426,25.949 17.749,27.272C19.072,28.595 20.664,29.257 22.526,29.257C24.387,29.257 25.974,28.595 27.285,27.272C28.596,25.949 29.252,24.357 29.252,22.496C29.252,20.634 28.596,19.048 27.285,17.737C25.974,16.425 24.387,15.77 22.526,15.77ZM24.756,11.485L24.756,11.274C24.756,10.642 24.979,10.109 25.423,9.676C25.868,9.243 26.395,9.026 27.004,9.026L31.5,9.026C32.132,9.026 32.67,9.243 33.115,9.676C33.56,10.109 33.782,10.642 33.782,11.274L33.782,22.513L33.747,22.513C33.747,19.821 32.899,17.438 31.201,15.366C29.503,13.294 27.355,12 24.756,11.485ZM13.517,15.77L13.517,6.779C13.517,6.146 13.74,5.614 14.184,5.18C14.629,4.747 15.156,4.531 15.765,4.531L20.261,4.531C20.893,4.531 21.425,4.747 21.859,5.18C22.292,5.614 22.508,6.146 22.508,6.779L22.508,11.274C20.705,11.274 19.02,11.678 17.451,12.486C15.882,13.294 14.571,14.388 13.517,15.77ZM13.517,29.222C14.571,30.626 15.882,31.733 17.451,32.541C19.02,33.348 20.705,33.752 22.508,33.752L24.756,33.752C24.756,34.361 24.54,34.888 24.106,35.333C23.673,35.778 23.141,36 22.508,36L2.278,36C1.669,36 1.142,35.778 0.698,35.333C0.253,34.888 0.03,34.355 0.03,33.735C0.03,33.114 0.247,32.587 0.68,32.154C1.113,31.721 1.646,31.504 2.278,31.504L2.278,2.248C2.278,1.639 2.5,1.112 2.945,0.667C3.39,0.222 3.917,0 4.526,0L9.021,0C9.654,0 10.186,0.222 10.62,0.667C11.053,1.112 11.269,1.639 11.269,2.248L11.269,31.504L13.517,31.504L13.517,29.222Z" style="fill:rgb(39,45,78);fill-rule:nonzero;"/>
    </g>
</svg>
