<?xml version="1.0" encoding="UTF-8" standalone="no"?>
<!DOCTYPE svg PUBLIC "-//W3C//DTD SVG 1.1//EN" "http://www.w3.org/Graphics/SVG/1.1/DTD/svg11.dtd">
<svg width="100%" height="100%" viewBox="0 0 40 40" version="1.1" xmlns="http://www.w3.org/2000/svg" xmlns:xlink="http://www.w3.org/1999/xlink" xml:space="preserve" xmlns:serif="http://www.serif.com/" style="fill-rule:evenodd;clip-rule:evenodd;stroke-linejoin:round;stroke-miterlimit:2;">
    <g transform="matrix(1,0,0,1,-1.90559e-05,3)">
        <g transform="matrix(1,0,0,1,3,0)">
            <path d="M11.343,3.379C9.319,3.937 7.309,4.543 5.315,5.198C5.133,5.257 4.971,5.366 4.847,5.512C4.724,5.659 4.645,5.837 4.618,6.027C3.44,14.86 6.16,21.305 9.405,25.551C10.779,27.367 12.417,28.966 14.265,30.296C15,30.815 15.651,31.189 16.163,31.429C16.418,31.55 16.626,31.631 16.785,31.68C16.855,31.704 16.927,31.722 17,31.733C17.072,31.721 17.143,31.703 17.213,31.68C17.374,31.631 17.582,31.55 17.837,31.429C18.347,31.189 19,30.813 19.735,30.296C21.583,28.966 23.221,27.367 24.595,25.551C27.84,21.307 30.56,14.86 29.382,6.027C29.356,5.837 29.276,5.659 29.153,5.512C29.03,5.365 28.868,5.257 28.685,5.198C27.302,4.745 24.967,4.008 22.657,3.381C20.298,2.741 18.128,2.267 17,2.267C15.874,2.267 13.702,2.741 11.343,3.381L11.343,3.379ZM10.778,1.19C13.084,0.563 15.534,0 17,0C18.466,0 20.916,0.563 23.222,1.19C25.581,1.827 27.959,2.582 29.357,3.039C29.942,3.232 30.46,3.586 30.852,4.06C31.245,4.535 31.495,5.11 31.575,5.721C32.842,15.234 29.903,22.285 26.337,26.949C24.825,28.945 23.022,30.702 20.989,32.162C20.286,32.667 19.54,33.112 18.762,33.49C18.167,33.771 17.527,34 17,34C16.473,34 15.836,33.771 15.238,33.49C14.46,33.112 13.715,32.667 13.011,32.162C10.978,30.702 9.175,28.945 7.663,26.949C4.097,22.285 1.158,15.234 2.425,5.721C2.505,5.11 2.755,4.535 3.148,4.06C3.54,3.586 4.059,3.232 4.643,3.039C6.673,2.373 8.718,1.757 10.778,1.19Z" style="fill:white;fill-rule:nonzero;"/>
        </g>
        <g transform="matrix(1,0,0,1,3,0)">
            <path d="M23.065,10.935C23.164,11.034 23.242,11.151 23.296,11.28C23.349,11.409 23.377,11.548 23.377,11.687C23.377,11.827 23.349,11.966 23.296,12.095C23.242,12.224 23.164,12.341 23.065,12.44L16.69,18.815C16.591,18.914 16.474,18.992 16.345,19.046C16.216,19.099 16.077,19.127 15.938,19.127C15.798,19.127 15.659,19.099 15.53,19.046C15.401,18.992 15.284,18.914 15.185,18.815L11.998,15.627C11.899,15.528 11.821,15.411 11.767,15.282C11.714,15.153 11.686,15.015 11.686,14.875C11.686,14.735 11.714,14.597 11.767,14.468C11.821,14.339 11.899,14.222 11.998,14.123C12.097,14.024 12.214,13.945 12.343,13.892C12.472,13.839 12.61,13.811 12.75,13.811C12.89,13.811 13.028,13.839 13.157,13.892C13.286,13.945 13.403,14.024 13.502,14.123L15.938,16.56L21.56,10.935C21.659,10.836 21.776,10.758 21.905,10.704C22.034,10.651 22.173,10.623 22.313,10.623C22.452,10.623 22.591,10.651 22.72,10.704C22.849,10.758 22.966,10.836 23.065,10.935Z" style="fill:white;fill-rule:nonzero;"/>
        </g>
    </g>
</svg>
