<?xml version="1.0" encoding="UTF-8" standalone="no"?>
<!DOCTYPE svg PUBLIC "-//W3C//DTD SVG 1.1//EN" "http://www.w3.org/Graphics/SVG/1.1/DTD/svg11.dtd">
<svg width="100%" height="100%" viewBox="0 0 32 17" version="1.1" xmlns="http://www.w3.org/2000/svg" xmlns:xlink="http://www.w3.org/1999/xlink" xml:space="preserve" xmlns:serif="http://www.serif.com/" style="fill-rule:evenodd;clip-rule:evenodd;stroke-linejoin:round;stroke-miterlimit:2;">
    <g transform="matrix(-1,0,0,1,31.73,0)">
        <path d="M8.087,0.916C8.22,0.971 8.341,1.052 8.443,1.154C8.544,1.256 8.625,1.377 8.681,1.51C8.736,1.643 8.764,1.786 8.764,1.93C8.764,2.074 8.736,2.216 8.681,2.349C8.625,2.482 8.544,2.603 8.443,2.705L3.741,7.405L30.634,7.405C30.925,7.405 31.203,7.52 31.409,7.726C31.614,7.931 31.73,8.21 31.73,8.5C31.73,8.79 31.614,9.069 31.409,9.274C31.203,9.48 30.925,9.595 30.634,9.595L3.741,9.595L8.443,14.295C8.648,14.501 8.764,14.78 8.764,15.071C8.764,15.361 8.648,15.64 8.443,15.846C8.237,16.052 7.958,16.167 7.667,16.167C7.376,16.167 7.097,16.052 6.892,15.846L0.321,9.275C0.219,9.174 0.138,9.053 0.083,8.92C0.028,8.787 -0,8.644 -0,8.5C-0,8.356 0.028,8.213 0.083,8.08C0.138,7.947 0.219,7.826 0.321,7.725L6.892,1.154C6.994,1.052 7.114,0.971 7.247,0.916C7.381,0.861 7.523,0.833 7.667,0.833C7.811,0.833 7.954,0.861 8.087,0.916Z"/>
    </g>
</svg>
