<?xml version="1.0" encoding="UTF-8" standalone="no"?>
<!DOCTYPE svg PUBLIC "-//W3C//DTD SVG 1.1//EN" "http://www.w3.org/Graphics/SVG/1.1/DTD/svg11.dtd">
<svg width="100%" height="100%" viewBox="0 0 48 48" version="1.1" xmlns="http://www.w3.org/2000/svg" xmlns:xlink="http://www.w3.org/1999/xlink" xml:space="preserve" xmlns:serif="http://www.serif.com/" style="fill-rule:evenodd;clip-rule:evenodd;stroke-linejoin:round;stroke-miterlimit:2;">
    <path d="M37.844,24.497C41.584,24.497 44.617,21.476 44.617,17.748C44.617,14.021 41.584,10.999 37.844,10.999C34.101,10.999 31.067,14.021 31.067,17.748C31.067,21.476 34.101,24.497 37.844,24.497Z" style="fill:rgb(39,45,78);fill-rule:nonzero;"/>
    <path d="M22.582,25.747C25.95,25.747 28.68,23.027 28.68,19.672C28.68,16.317 25.95,13.598 22.582,13.598C19.215,13.598 16.485,16.317 16.485,19.672C16.485,23.027 19.215,25.747 22.582,25.747Z" style="fill:rgb(39,45,78);fill-rule:nonzero;"/>
    <path d="M8.743,26.872C11.773,26.872 14.231,24.426 14.231,21.407C14.231,18.387 11.773,15.94 8.743,15.94C5.712,15.94 3.255,18.387 3.255,21.407C3.255,24.427 5.711,26.872 8.743,26.872Z" style="fill:rgb(39,45,78);fill-rule:nonzero;"/>
    <path d="M8.743,28.121C5.263,28.121 2.712,31.175 2.712,34.33L2.712,36.454C2.712,36.755 2.957,37.001 3.26,37.001L14.224,37.001C14.528,37.001 14.773,36.755 14.773,36.454L14.773,34.33C14.773,31.175 12.222,28.121 8.743,28.121Z" style="fill:rgb(39,45,78);fill-rule:nonzero;"/>
    <path d="M22.582,27.133C18.716,27.133 15.88,30.527 15.88,34.033L15.88,36.393C15.88,36.727 16.153,37.001 16.489,37.001L28.673,37.001C28.834,37.002 28.989,36.938 29.104,36.824C29.218,36.709 29.283,36.555 29.283,36.393L29.283,34.033C29.283,30.527 26.449,27.133 22.582,27.133Z" style="fill:rgb(39,45,78);fill-rule:nonzero;"/>
    <path d="M37.843,26.037C33.547,26.037 30.397,29.808 30.397,33.704L30.397,36.326C30.397,36.697 30.7,37.001 31.074,37.001L44.61,37.001C44.985,37.001 45.289,36.697 45.289,36.326L45.289,33.704C45.289,29.808 42.139,26.037 37.843,26.037Z" style="fill:rgb(39,45,78);fill-rule:nonzero;"/>
</svg>
