<?xml version="1.0" encoding="UTF-8" standalone="no"?>
<!DOCTYPE svg PUBLIC "-//W3C//DTD SVG 1.1//EN" "http://www.w3.org/Graphics/SVG/1.1/DTD/svg11.dtd">
<svg width="100%" height="100%" viewBox="0 0 40 40" version="1.1" xmlns="http://www.w3.org/2000/svg" xmlns:xlink="http://www.w3.org/1999/xlink" xml:space="preserve" xmlns:serif="http://www.serif.com/" style="fill-rule:evenodd;clip-rule:evenodd;stroke-linejoin:round;stroke-miterlimit:2;">
    <path d="M20.433,36.662C20.145,36.669 19.856,36.669 19.567,36.662C16.344,36.578 13.214,35.562 10.557,33.736C7.899,31.91 5.829,29.352 4.595,26.373C3.757,24.34 3.328,22.162 3.333,19.962C3.337,17.763 3.776,15.586 4.623,13.557C5.456,11.575 6.664,9.773 8.18,8.25L8.25,8.18C9.766,6.672 11.558,5.469 13.528,4.637C15.574,3.778 17.77,3.335 19.988,3.333C22.207,3.332 24.403,3.771 26.45,4.627C28.433,5.461 30.236,6.671 31.76,8.19L31.81,8.24C33.332,9.768 34.56,11.59 35.398,13.612C36.269,15.716 36.7,17.976 36.665,20.253C36.615,23.523 35.605,26.707 33.76,29.407C31.915,32.107 29.317,34.205 26.288,35.44C24.427,36.196 22.444,36.61 20.435,36.662L20.433,36.662ZM23.387,25.745L28.177,30.533C25.837,32.348 22.961,33.333 20,33.333C17.039,33.333 14.163,32.348 11.823,30.533L16.613,25.743C17.64,26.347 18.809,26.666 20,26.666C21.191,26.666 22.36,26.347 23.387,25.743L23.387,25.745ZM14.257,23.387L9.467,28.177C7.652,25.837 6.667,22.961 6.667,20C6.667,17.039 7.652,14.163 9.467,11.823L14.257,16.613C13.653,17.64 13.334,18.809 13.334,20C13.334,21.191 13.653,22.36 14.257,23.387ZM16.803,20.948C16.629,20.358 16.621,19.731 16.78,19.137C16.931,18.572 17.229,18.056 17.643,17.643C18.056,17.228 18.571,16.929 19.137,16.778C19.703,16.626 20.298,16.627 20.863,16.78C21.41,16.927 21.928,17.213 22.357,17.643C22.772,18.056 23.071,18.571 23.222,19.137C23.374,19.703 23.373,20.298 23.22,20.863C23.073,21.41 22.787,21.928 22.357,22.357C21.944,22.772 21.429,23.071 20.863,23.222C20.298,23.374 19.702,23.373 19.137,23.22C18.572,23.069 18.056,22.771 17.643,22.357C17.25,21.965 16.961,21.481 16.803,20.948ZM23.387,14.257C22.36,13.653 21.191,13.334 20,13.334C18.809,13.334 17.64,13.653 16.613,14.257L11.823,9.467C14.163,7.652 17.039,6.667 20,6.667C22.961,6.667 25.837,7.652 28.177,9.467L23.387,14.257ZM30.533,28.177C32.348,25.837 33.333,22.961 33.333,20C33.333,17.039 32.348,14.163 30.533,11.823L25.743,16.613C26.347,17.64 26.666,18.809 26.666,20C26.666,21.191 26.347,22.36 25.743,23.387L30.533,28.177Z" style="fill:white;"/>
</svg>
