<?xml version="1.0" encoding="UTF-8" standalone="no"?>
<!DOCTYPE svg PUBLIC "-//W3C//DTD SVG 1.1//EN" "http://www.w3.org/Graphics/SVG/1.1/DTD/svg11.dtd">
<svg width="100%" height="100%" viewBox="0 0 26 26" version="1.1" xmlns="http://www.w3.org/2000/svg" xmlns:xlink="http://www.w3.org/1999/xlink" xml:space="preserve" xmlns:serif="http://www.serif.com/" style="fill-rule:evenodd;clip-rule:evenodd;stroke-linejoin:round;stroke-miterlimit:1.41421;">
    <g transform="matrix(1,0,0,1,0.69085,3)">
        <path d="M24.618,2.376C23.713,2.766 22.728,3.047 21.713,3.157C22.767,2.531 23.556,1.542 23.932,0.376C22.943,0.964 21.86,1.376 20.731,1.595C20.259,1.09 19.688,0.688 19.054,0.414C18.419,0.139 17.735,-0.002 17.044,0C14.249,0 12,2.266 12,5.047C12,5.438 12.047,5.828 12.124,6.204C7.938,5.985 4.204,3.985 1.722,0.923C1.27,1.696 1.033,2.575 1.036,3.47C1.036,5.222 1.926,6.766 3.284,7.675C2.484,7.643 1.702,7.423 1.003,7.033L1.003,7.095C1.003,9.547 2.737,11.58 5.047,12.047C4.613,12.16 4.167,12.218 3.719,12.219C3.391,12.219 3.08,12.186 2.766,12.142C3.405,14.142 5.266,15.595 7.482,15.642C5.749,17 3.577,17.799 1.219,17.799C0.796,17.799 0.405,17.784 0,17.737C2.237,19.172 4.891,20 7.749,20C17.027,20 22.104,12.314 22.104,5.642C22.104,5.423 22.104,5.204 22.089,4.985C23.071,4.266 23.932,3.376 24.618,2.376Z" style="fill:rgb(120,84,247);fill-rule:nonzero;"/>
    </g>
</svg>
